<?xml version="1.0" encoding="UTF-8" standalone="no"?>
<!-- Created with Inkscape (http://www.inkscape.org/) -->

<svg
   width="500"
   height="500"
   viewBox="0 0 500 500"
   version="1.1"
   id="SVGRoot"
   sodipodi:docname="/tmp/ink_ext_XXXXXX.svg8W3AW1"
   xmlns:inkscape="http://www.inkscape.org/namespaces/inkscape"
   xmlns:sodipodi="http://sodipodi.sourceforge.net/DTD/sodipodi-0.dtd"
   xmlns="http://www.w3.org/2000/svg"
   xmlns:svg="http://www.w3.org/2000/svg">
  <sodipodi:namedview
     id="namedview541"
     pagecolor="#ffffff"
     bordercolor="#000000"
     borderopacity="0.25"
     inkscape:showpageshadow="2"
     inkscape:pageopacity="0.0"
     inkscape:pagecheckerboard="0"
     inkscape:deskcolor="#d1d1d1"
     inkscape:document-units="px"
     showgrid="false"
     inkscape:zoom="0.25"
     inkscape:cx="944.5"
     inkscape:cy="944.5"
     inkscape:window-width="1499"
     inkscape:window-height="1080"
     inkscape:window-x="0"
     inkscape:window-y="0"
     inkscape:window-maximized="0"
     inkscape:current-layer="layer1" />
  <defs
     id="defs536">
    <linearGradient
       id="_Linear1"
       x1="0"
       y1="0"
       x2="1"
       y2="0"
       gradientUnits="userSpaceOnUse"
       gradientTransform="matrix(464.586,277.612,-277.612,464.586,1374.55,2357.62)">
      <stop
         offset="0"
         style="stop-color:rgb(215,27,205);stop-opacity:1"
         id="stop93" />
      <stop
         offset="1"
         style="stop-color:rgb(40,0,201);stop-opacity:1"
         id="stop95" />
    </linearGradient>
    <linearGradient
       id="_Linear2"
       x1="0"
       y1="0"
       x2="1"
       y2="0"
       gradientUnits="userSpaceOnUse"
       gradientTransform="matrix(464.586,277.612,-277.612,464.586,1864.37,2268.47)">
      <stop
         offset="0"
         style="stop-color:rgb(215,27,205);stop-opacity:1"
         id="stop98" />
      <stop
         offset="1"
         style="stop-color:rgb(40,0,201);stop-opacity:1"
         id="stop100" />
    </linearGradient>
  </defs>
  <g
     inkscape:label="Layer 1"
     inkscape:groupmode="layer"
     id="layer1">
    <g
       id="g87"
       transform="matrix(1.0156944,0,0,1.0975119,-939.99473,-534.84564)"
       style="clip-rule:evenodd;fill-rule:evenodd;stroke-linecap:round;stroke-linejoin:round;stroke-miterlimit:1.5">
        <g
   transform="translate(-440.8,-1792.02)"
   id="g81">
            <path
   d="m 1550.42,2634.72 h 106.33 l -0.6,-156.14 c 0,0 -2.96,-19.2 -6.58,-28.12 -4.29,-10.57 -11.04,-24.64 -19.15,-35.29 -8.27,-10.87 -20.54,-22.14 -30.51,-29.92 -8.87,-6.92 -19.04,-12.46 -29.31,-16.75 -10.27,-4.28 -21.25,-7.33 -32.3,-8.97 -11.7,-1.74 -26.08,-2.46 -37.85,-1.44 -11.17,0.97 -22.36,3.8 -32.78,7.57 -10.41,3.76 -20.83,9.44 -29.71,15.01 -8.45,5.29 -16.51,11.35 -23.58,18.38 -7.1,7.04 -13.63,15.32 -19,23.89 -5.35,8.57 -9.84,18.25 -13.17,27.52 -3.26,9.08 -5.86,18.52 -6.81,28.12 -1.13,11.57 -1.13,30.14 0,41.29 0.9,8.79 3.56,17.4 6.81,25.61 3.33,8.41 7.94,17.1 13.17,24.89 5.37,7.97 12.06,15.86 19,22.97 7.09,7.27 15.39,15.25 23.58,20.67 7.83,5.19 16.71,8.7 25.55,11.87 9.61,3.45 21.11,7.54 32.16,8.84 12.46,1.48 32.57,0.49 42.63,0 h 25.13 v -145.91 c 0,0 -1.81,-7.02 -3.44,-10.23 -2.17,-4.28 -5.96,-11.45 -9.57,-15.42 -3.31,-3.64 -8.04,-6.31 -12.12,-8.42 -3.88,-2.01 -8.06,-3.69 -12.39,-4.28 -5.25,-0.71 -13.59,-0.71 -19.14,0 -4.89,0.63 -9.96,1.69 -14.17,4.28 -5.1,3.13 -12.3,8.87 -16.46,14.55 -4.16,5.68 -7.06,13.14 -8.47,19.52 -1.35,6.11 -1.41,12.83 0,18.76 1.41,5.94 5.27,12.32 8.47,16.85 2.86,4.06 6.73,7.38 10.72,10.34 4.05,3 9.93,5.87 13.59,7.66 2.68,1.3 6.49,2.47 8.4,3.06 h 41.57"
   style="fill:url(#_Linear1)"
   id="path79" />

        </g>

        <g
   transform="translate(-930.618,-1702.87)"
   id="g85">
            <path
   d="m 2152.26,2376.17 c 10.04,-7.95 8.9,-9.71 21.29,-13.62 4.59,-1.45 9.44,-2.28 14.25,-2.35 4.9,-0.07 9.85,0.58 14.56,1.93 31,8.92 35.61,47.92 36.4,74.84 0.47,16 -0.01,32.02 -0.08,48.02 -0.11,20.37 -0.23,40.73 -0.46,61.1 h 90.74 v -142.43 c -0.06,-11.24 -1.11,-24.18 -3.83,-34.84 -15.98,-62.65 -79.01,-103.5 -142.03,-101.97 -29.21,0.72 -52.51,13.3 -77.65,27.33 23.24,23.17 42.2,48.68 46.81,81.99 z"
   style="fill:url(#_Linear2)"
   id="path83" />

        </g>

    </g>
  </g>
</svg>
